<svg xmlns="http://www.w3.org/2000/svg" width="920" height="240" viewBox="0 0 920 240" role="img" aria-label="Vidhione book check lockup">
  <defs>
    <linearGradient id="vidhione-bookcheck-gradient" x1="0" y1="0" x2="1" y2="1">
      <stop offset="0" stop-color="#22d3ee" />
      <stop offset="0.55" stop-color="#a78bfa" />
      <stop offset="1" stop-color="#f472b6" />
    </linearGradient>
  </defs>
  <rect width="920" height="240" rx="40" fill="#0f172a" />
  <g transform="translate(28 28)">
    <rect width="184" height="184" rx="44" fill="#0f172a" />
    <g fill="none" stroke="url(#vidhione-bookcheck-gradient)" stroke-linecap="round" stroke-linejoin="round">
      <path d="M44 52 H120 C136 52 144 60 144 76 V140 C128 128 108 128 92 140 C76 128 56 128 40 140 V76 C40 60 48 52 64 52" stroke-width="10" />
      <path d="M92 60 V136" stroke-width="7" opacity="0.8" />
      <path d="M64 84 H86" stroke-width="5" opacity="0.75" />
      <path d="M64 102 H86" stroke-width="5" opacity="0.7" />
      <path d="M64 120 H86" stroke-width="5" opacity="0.65" />
      <path d="M98 84 H120" stroke-width="5" opacity="0.75" />
      <path d="M98 102 H120" stroke-width="5" opacity="0.7" />
    </g>
    <circle cx="144" cy="132" r="20" fill="url(#vidhione-bookcheck-gradient)" />
    <path d="M134 132 L140 138 L152 124" fill="none" stroke="#0f172a" stroke-width="6" stroke-linecap="round" stroke-linejoin="round" />
  </g>
  <text x="250" y="150" font-family="'Sora', 'Space Grotesk', 'Avenir Next', 'Segoe UI', sans-serif" font-size="96" font-weight="600" letter-spacing="2" fill="#f8fafc">Vidhione</text>
</svg>
